<svg xmlns="http://www.w3.org/2000/svg" viewBox="0 0 512 512" width="512" height="512">
  <defs>
    <linearGradient id="bg" x1="0" y1="0" x2="1" y2="1">
      <stop offset="0" stop-color="#54b493"/>
      <stop offset="1" stop-color="#2b7458"/>
    </linearGradient>
    <linearGradient id="hand" x1="0" y1="0" x2="1" y2="1">
      <stop offset="0" stop-color="#f4fff9"/>
      <stop offset="1" stop-color="#c9ebdb"/>
    </linearGradient>
    <linearGradient id="heart" x1="0" y1="0" x2="0" y2="1">
      <stop offset="0" stop-color="#ffc2ad"/>
      <stop offset="1" stop-color="#ef7f61"/>
    </linearGradient>
  </defs>
  <rect width="512" height="512" rx="112" fill="url(#bg)"/>
  <!-- 福祉従事者を支える：ハートを包み込む両手のゆりかご（ケア・支援） -->
  <g transform="translate(256 244)">
    <path d="M0 92 C-60 44 -104 4 -104 -46 C-104 -76 -80 -98 -50 -98 C-26 -98 -8 -84 0 -64 C8 -84 26 -98 50 -98 C80 -98 104 -76 104 -46 C104 4 60 44 0 92 Z" fill="url(#heart)"/>
    <path d="M-150 4 C-120 132 120 132 150 4 C110 74 -110 74 -150 4 Z" fill="url(#hand)"/>
    <circle cx="-146" cy="0" r="22" fill="url(#hand)"/>
    <circle cx="146" cy="0" r="22" fill="url(#hand)"/>
  </g>
</svg>
